<svg width="26" height="26" fill="#fff" stroke="#fff" xmlns="http://www.w3.org/2000/svg" class="CuBottomNavigation_icon__cWvw7" aria-label="Follow ClickUp on Instagram"><path fill-rule="evenodd" clip-rule="evenodd" d="M17.854.14c-2.3-.108-7.997-.103-10.299 0C5.533.233 3.748.721 2.31 2.16.158 4.313.178 7.134.206 11.107c.003.467.007.95.007 1.45 0 .467-.003.919-.005 1.356C.185 18.019.17 20.81 2.31 22.95c2.155 2.155 5.006 2.133 8.935 2.104.47-.003.957-.007 1.46-.007h.067c4.764 0 6.42 0 8.114-.656 2.316-.9 4.064-2.969 4.235-6.687.108-2.3.102-7.996 0-10.298-.206-4.389-2.562-7.05-7.267-7.267zm3.774 5.873a1.786 1.786 0 1 1-3.571 0 1.786 1.786 0 0 1 3.571 0zM12.7 17.322a4.762 4.762 0 1 0 0-9.524 4.762 4.762 0 0 0 0 9.524z" fill="var(--color-icon, #fff)"></path></svg>