
<svg width="26" height="26" fill="none" xmlns="http://www.w3.org/2000/svg" class="CuBottomNavigation_icon__cWvw7" aria-label="Follow ClickUp on Facebook"><rect x="0.2" y="0.061" width="25" height="25" rx="5.714" fill="var(--color-icon, #0D1530)"></rect><path d="M10.854 13.527H8.939c-.309 0-.406-.112-.406-.394v-2.271c0-.3.116-.395.406-.395h1.915V8.815c0-.75.135-1.464.522-2.121.406-.676.986-1.127 1.72-1.39a4.418 4.418 0 0 1 1.49-.243h1.894c.27 0 .387.112.387.375v2.14c0 .263-.116.376-.387.376-.522 0-1.044 0-1.566.018-.522 0-.793.244-.793.77-.02.563 0 1.108 0 1.69h2.243c.31 0 .425.112.425.413v2.271c0 .3-.096.395-.425.395h-2.243v6.12c0 .319-.096.431-.444.431H11.26c-.29 0-.406-.112-.406-.394v-6.139z" fill="#fff"></path></svg>