<svg width="26" height="26" fill="none" xmlns="http://www.w3.org/2000/svg" class="CuBottomNavigation_icon__cWvw7" aria-label="Follow ClickUp on LinkedIn"><rect x="0.2" y="0.061" width="25" height="25" rx="5.714" fill="var(--color-icon, #0D1530)"></rect><path d="M8.699 9.88H5.68a.242.242 0 0 0-.243.242v9.696c0 .133.109.242.243.242h3.018a.242.242 0 0 0 .242-.242v-9.696a.242.242 0 0 0-.24-.242zM7.192 5.06A1.993 1.993 0 0 0 5.2 7.05c0 1.097.893 1.99 1.992 1.99 1.097 0 1.99-.893 1.99-1.99s-.893-1.99-1.99-1.99zm9.184 4.58c-1.212 0-2.108.52-2.652 1.113v-.63a.242.242 0 0 0-.242-.242h-2.89a.242.242 0 0 0-.243.242v9.695c0 .134.108.243.242.243h3.012a.242.242 0 0 0 .242-.243v-4.797c0-1.616.44-2.246 1.566-2.246 1.227 0 1.325 1.01 1.325 2.33v4.713c0 .134.108.243.242.243h3.013a.242.242 0 0 0 .242-.243V14.5c0-2.403-.458-4.86-3.857-4.86z" fill="#fff"></path></svg>